#!OML:ASF F:\VICON\USERDATA\INSTALL\rory3\rory3.ASF
:FULLY-SPECIFIED
:DEGREES
672
root 4.34186 15.7661 1.67168 21.8503 -5.41581 -3.69329
lowerback 10.0593 -0.471303 2.16295
upperback 9.28401 -0.494568 -0.948799
thorax 4.04065 -0.111142 -2.16956
lowerneck -17.9016 -0.536634 -1.31512
upperneck 37.8238 0.618043 -2.46946
head 16.6844 -0.315753 -0.750631
rclavicle -7.15625e-015 -1.27222e-014
rhumerus -72.9853 63.5895 -76.8583
rradius 56.5466
rwrist -17.8072
rhand -8.23768 -40.7724
rfingers 7.12502
rthumb 17.6801 -69.9886
lclavicle -7.15625e-015 -1.27222e-014
lhumerus -80.2534 -76.1047 80.8526
lradius 59.5621
lwrist 61.0585
lhand -27.3865 -26.3665
lfingers 7.12502
lthumb -0.793372 3.61182
rfemur -74.9344 -0.692252 20.4353
rtibia 36.3966
rfoot 37.0373 -1.65002
rtoes 4.65826
lfemur -58.3614 2.05533 -27.2358
ltibia 61.7147
lfoot -24.1547 5.32098
ltoes 12.384
673
root 4.34058 15.7647 1.67018 21.8455 -5.41853 -3.80589
lowerback 10.1518 -0.465905 2.25358
upperback 9.25323 -0.480489 -0.919733
thorax 3.95802 -0.10176 -2.19028
lowerneck -17.8577 -0.556006 -1.35545
upperneck 37.8747 0.571932 -2.39137
head 16.699 -0.329702 -0.71823
rclavicle -1.47101e-014 4.37326e-015
rhumerus -73.0821 63.7747 -76.773
rradius 56.4496
rwrist -17.9259
rhand -7.44785 -40.8999
rfingers 7.12502
rthumb 18.44 -70.0459
lclavicle -1.47101e-014 4.37326e-015
lhumerus -80.4629 -76.228 80.8111
lradius 59.5592
lwrist 61.1822
lhand -28.1913 -27.2411
lfingers 7.12502
lthumb -1.57066 2.73287
rfemur -74.9041 -0.675992 20.6088
rtibia 36.358
rfoot 37.0715 -1.7786
rtoes 5.09009
lfemur -58.3859 2.119 -27.1336
ltibia 61.7798
lfoot -24.2162 5.41001
ltoes 11.959
674
root 4.3393 15.7661 1.66999 21.8417 -5.43112 -3.8698
lowerback 10.1811 -0.453254 2.32351
upperback 9.25667 -0.459171 -0.914098
thorax 3.94701 -0.087811 -2.22496
lowerneck -17.9195 -0.590339 -1.49016
upperneck 37.9922 0.485601 -2.1698
head 16.7744 -0.354412 -0.614624
rclavicle -1.98785e-015 -1.31198e-014
rhumerus -72.9929 63.9087 -76.4792
rradius 56.3624
rwrist -18.1946
rhand -7.22711 -41.0192
rfingers 7.12502
rthumb 18.6524 -70.145
lclavicle -1.98785e-015 -1.31198e-014
lhumerus -81.6537 -76.5568 81.7165
lradius 59.6517
lwrist 61.635
lhand -28.9743 -27.8243
lfingers 7.12502
lthumb -2.32691 2.14272
rfemur -74.8719 -0.67349 20.7334
rtibia 36.3175
rfoot 37.0954 -1.55168
rtoes 4.57273
lfemur -58.3732 2.16232 -27.0714
ltibia 61.8175
lfoot -24.2288 5.46575
ltoes 11.8679
675
root 4.33615 15.7692 1.66911 21.837 -5.46294 -3.84896
lowerback 10.2298 -0.42901 2.29025
upperback 9.24332 -0.428143 -0.925798
thorax 3.9078 -0.0744291 -2.22022
lowerneck -17.8931 -0.600746 -1.59039
upperneck 37.9669 0.436978 -1.99754
head 16.7527 -0.363853 -0.528797
rclavicle 5.1684e-015 5.1684e-015
rhumerus -72.8728 63.942 -76.1734
rradius 56.1325
rwrist -18.0972
rhand -7.05798 -40.8209
rfingers 7.12502
rthumb 18.8151 -69.931
lclavicle 5.1684e-015 5.1684e-015
lhumerus -81.7935 -76.8041 81.6189
lradius 59.6412
lwrist 61.9442
lhand -28.5165 -27.3725
lfingers 7.12502
lthumb -1.88478 2.59891
rfemur -74.845 -0.645162 20.7187
rtibia 36.2823
rfoot 37.0893 -1.50286
rtoes 4.31545
lfemur -58.388 2.19564 -27.0881
ltibia 61.8196
lfoot -24.1511 5.44732
ltoes 11.6349
676
root 4.33141 15.7709 1.6717 21.7818 -5.56022 -3.75922
lowerback 10.2527 -0.38995 2.12253
upperback 9.26828 -0.387142 -0.951139
thorax 3.92389 -0.0617406 -2.15524
lowerneck -17.8294 -0.587832 -1.56349
upperneck 37.8658 0.444879 -2.00332
head 16.6831 -0.356239 -0.532711
rclavicle -1.35174e-014 -8.74653e-015
rhumerus -72.6711 63.9579 -75.8304
rradius 55.9174
rwrist -17.8611
rhand -6.24335 -40.5072
rfingers 7.12502
rthumb 19.5984 -69.5394
lclavicle -1.35174e-014 -8.74653e-015
lhumerus -79.9991 -76.7274 79.6529
lradius 59.4846
lwrist 61.7452
lhand -27.4513 -26.3605
lfingers 7.12502
lthumb -0.856007 3.61756
rfemur -74.7809 -0.574184 20.603
rtibia 36.2616
rfoot 37.0498 -1.78432
rtoes 4.95633
lfemur -58.3198 2.24675 -27.1888
ltibia 61.791
lfoot -24.0732 5.50146
ltoes 11.2919
677
root 4.32885 15.7739 1.67392 21.7681 -5.56953 -3.69098
lowerback 10.2574 -0.3943 2.05107
upperback 9.26939 -0.396691 -0.979501
thorax 3.92183 -0.0693165 -2.14402
lowerneck -17.8377 -0.600638 -1.57774
upperneck 37.8998 0.404329 -1.93567
head 16.7023 -0.365755 -0.508467
rclavicle 1.39149e-014 5.56597e-015
rhumerus -72.3967 63.9457 -75.4137
rradius 55.7918
rwrist -17.8057
rhand -5.98806 -40.3769
rfingers 7.12502
rthumb 19.8438 -69.3839
lclavicle 1.39149e-014 5.56597e-015
lhumerus -78.7343 -76.6173 78.1812
lradius 59.3736
lwrist 61.5737
lhand -27.427 -26.2313
lfingers 7.12502
lthumb -0.832543 3.74679
rfemur -74.7697 -0.622849 20.6065
rtibia 36.2632
rfoot 37.0427 -1.88119
rtoes 5.31248
lfemur -58.2524 2.2054 -27.2424
ltibia 61.7496
lfoot -24.084 5.54542
ltoes 11.2244
678
root 4.3291 15.7772 1.67531 21.773 -5.52674 -3.65386
lowerback 10.2646 -0.414028 2.07943
upperback 9.25596 -0.41989 -0.99858
thorax 3.90224 -0.0789684 -2.17817
lowerneck -17.8238 -0.624548 -1.61575
upperneck 37.9223 0.354414 -1.86556
head 16.71 -0.381753 -0.480292
rclavicle -1.98785e-014 -3.18055e-015
rhumerus -72.3119 64.0177 -75.1327
rradius 55.7153
rwrist -18.0992
rhand -6.31518 -40.7384
rfingers 7.12502
rthumb 19.5293 -69.7776
lclavicle -1.98785e-014 -3.18055e-015
lhumerus -78.6402 -76.7137 77.8542
lradius 59.3448
lwrist 61.7602
lhand -27.5922 -26.4059
lfingers 7.12502
lthumb -0.992006 3.57156
rfemur -74.7917 -0.757961 20.7244
rtibia 36.284
rfoot 37.0934 -1.64682
rtoes 5.01631
lfemur -58.1995 2.13508 -27.2581
ltibia 61.7146
lfoot -24.1687 5.54318
ltoes 11.4635
